<mxfile host="app.diagrams.net" modified="2022-10-19T13:57:34.918Z" agent="5.0 (Windows NT 10.0; Win64; x64) AppleWebKit/537.36 (KHTML, like Gecko) Chrome/103.0.0.0 Safari/537.36" etag="Eu02m93CuZfl-Hv4eIra" version="20.4.0" type="github">
  <diagram id="WIEptjTv6dHmJsCwqhmr" name="第 1 页">
    <mxGraphModel dx="1943" dy="924" grid="1" gridSize="10" guides="1" tooltips="1" connect="1" arrows="1" fold="1" page="1" pageScale="1" pageWidth="827" pageHeight="1169" math="0" shadow="0">
      <root>
        <mxCell id="0" />
        <mxCell id="1" parent="0" />
        <mxCell id="H3Kc1O4I8Vcekz-QAihB-5" value="" style="rounded=0;whiteSpace=wrap;html=1;fillColor=#d5e8d4;strokeColor=#82b366;dashed=1;" vertex="1" parent="1">
          <mxGeometry x="600" y="420" width="140" height="80" as="geometry" />
        </mxCell>
        <mxCell id="H3Kc1O4I8Vcekz-QAihB-1" value="主持人" style="rounded=1;whiteSpace=wrap;html=1;fillColor=#ffe6cc;strokeColor=#d79b00;" vertex="1" parent="1">
          <mxGeometry x="120" y="440" width="90" height="40" as="geometry" />
        </mxCell>
        <mxCell id="H3Kc1O4I8Vcekz-QAihB-2" value="参会者m" style="rounded=1;whiteSpace=wrap;html=1;fillColor=#ffe6cc;strokeColor=#d79b00;" vertex="1" parent="1">
          <mxGeometry x="630" y="440" width="90" height="40" as="geometry" />
        </mxCell>
        <mxCell id="H3Kc1O4I8Vcekz-QAihB-3" value="参会者1" style="rounded=1;whiteSpace=wrap;html=1;fillColor=#dae8fc;strokeColor=#6c8ebf;" vertex="1" parent="1">
          <mxGeometry x="269" y="580" width="90" height="40" as="geometry" />
        </mxCell>
        <mxCell id="H3Kc1O4I8Vcekz-QAihB-4" value="参会者n" style="rounded=1;whiteSpace=wrap;html=1;fillColor=#dae8fc;strokeColor=#6c8ebf;" vertex="1" parent="1">
          <mxGeometry x="520" y="550" width="90" height="40" as="geometry" />
        </mxCell>
        <mxCell id="H3Kc1O4I8Vcekz-QAihB-6" value="屏幕共享" style="rounded=0;whiteSpace=wrap;html=1;dashed=1;strokeColor=none;fillColor=none;" vertex="1" parent="1">
          <mxGeometry x="583" y="414" width="90" height="30" as="geometry" />
        </mxCell>
        <mxCell id="H3Kc1O4I8Vcekz-QAihB-8" value="center" style="rounded=1;whiteSpace=wrap;html=1;strokeColor=#9673a6;fillColor=#e1d5e7;" vertex="1" parent="1">
          <mxGeometry x="359" y="320" width="110" height="50" as="geometry" />
        </mxCell>
        <mxCell id="H3Kc1O4I8Vcekz-QAihB-9" value="" style="curved=1;endArrow=classic;html=1;rounded=0;exitX=1;exitY=0;exitDx=0;exitDy=0;entryX=0;entryY=0.5;entryDx=0;entryDy=0;" edge="1" parent="1" source="H3Kc1O4I8Vcekz-QAihB-1" target="H3Kc1O4I8Vcekz-QAihB-8">
          <mxGeometry width="50" height="50" relative="1" as="geometry">
            <mxPoint x="390" y="500" as="sourcePoint" />
            <mxPoint x="440" y="450" as="targetPoint" />
            <Array as="points">
              <mxPoint x="260" y="390" />
            </Array>
          </mxGeometry>
        </mxCell>
        <mxCell id="H3Kc1O4I8Vcekz-QAihB-10" value="" style="curved=1;endArrow=classic;html=1;rounded=0;exitX=1;exitY=0.5;exitDx=0;exitDy=0;entryX=0.555;entryY=-0.032;entryDx=0;entryDy=0;entryPerimeter=0;" edge="1" parent="1" source="H3Kc1O4I8Vcekz-QAihB-8" target="H3Kc1O4I8Vcekz-QAihB-5">
          <mxGeometry width="50" height="50" relative="1" as="geometry">
            <mxPoint x="390" y="500" as="sourcePoint" />
            <mxPoint x="440" y="450" as="targetPoint" />
            <Array as="points">
              <mxPoint x="510" y="345" />
              <mxPoint x="620" y="370" />
            </Array>
          </mxGeometry>
        </mxCell>
        <mxCell id="H3Kc1O4I8Vcekz-QAihB-11" value="" style="curved=1;endArrow=classic;html=1;rounded=0;exitX=0;exitY=0.5;exitDx=0;exitDy=0;" edge="1" parent="1" source="H3Kc1O4I8Vcekz-QAihB-5">
          <mxGeometry width="50" height="50" relative="1" as="geometry">
            <mxPoint x="390" y="500" as="sourcePoint" />
            <mxPoint x="470" y="360" as="targetPoint" />
            <Array as="points">
              <mxPoint x="570" y="420" />
            </Array>
          </mxGeometry>
        </mxCell>
        <mxCell id="H3Kc1O4I8Vcekz-QAihB-12" value="" style="curved=1;endArrow=classic;html=1;rounded=0;exitX=0.25;exitY=1;exitDx=0;exitDy=0;entryX=1;entryY=0.5;entryDx=0;entryDy=0;fillColor=#f8cecc;strokeColor=#b85450;dashed=1;" edge="1" parent="1" source="H3Kc1O4I8Vcekz-QAihB-8" target="H3Kc1O4I8Vcekz-QAihB-1">
          <mxGeometry width="50" height="50" relative="1" as="geometry">
            <mxPoint x="390" y="500" as="sourcePoint" />
            <mxPoint x="440" y="450" as="targetPoint" />
            <Array as="points">
              <mxPoint x="390" y="450" />
            </Array>
          </mxGeometry>
        </mxCell>
        <mxCell id="H3Kc1O4I8Vcekz-QAihB-14" value="" style="curved=1;endArrow=classic;html=1;rounded=0;exitX=0.75;exitY=1;exitDx=0;exitDy=0;entryX=0.5;entryY=0;entryDx=0;entryDy=0;fillColor=#f8cecc;strokeColor=#b85450;dashed=1;" edge="1" parent="1" source="H3Kc1O4I8Vcekz-QAihB-8" target="H3Kc1O4I8Vcekz-QAihB-4">
          <mxGeometry width="50" height="50" relative="1" as="geometry">
            <mxPoint x="390" y="500" as="sourcePoint" />
            <mxPoint x="440" y="450" as="targetPoint" />
            <Array as="points">
              <mxPoint x="460" y="460" />
              <mxPoint x="530" y="530" />
            </Array>
          </mxGeometry>
        </mxCell>
        <mxCell id="H3Kc1O4I8Vcekz-QAihB-15" value="" style="curved=1;endArrow=classic;html=1;rounded=0;exitX=0.5;exitY=1;exitDx=0;exitDy=0;entryX=0.5;entryY=0;entryDx=0;entryDy=0;fillColor=#f8cecc;strokeColor=#b85450;dashed=1;" edge="1" parent="1" source="H3Kc1O4I8Vcekz-QAihB-8" target="H3Kc1O4I8Vcekz-QAihB-3">
          <mxGeometry width="50" height="50" relative="1" as="geometry">
            <mxPoint x="390" y="500" as="sourcePoint" />
            <mxPoint x="440" y="450" as="targetPoint" />
            <Array as="points">
              <mxPoint x="403" y="460" />
              <mxPoint x="350" y="550" />
            </Array>
          </mxGeometry>
        </mxCell>
        <mxCell id="H3Kc1O4I8Vcekz-QAihB-16" value="1" style="ellipse;whiteSpace=wrap;html=1;aspect=fixed;strokeColor=default;fillColor=none;" vertex="1" parent="1">
          <mxGeometry x="249" y="370" width="20" height="20" as="geometry" />
        </mxCell>
        <mxCell id="H3Kc1O4I8Vcekz-QAihB-17" value="&lt;div style=&quot;background-color: rgb(255, 255, 255); font-family: Consolas, Consolas, &amp;quot;Courier New&amp;quot;, monospace; line-height: 24px;&quot;&gt;&lt;font style=&quot;font-size: 15px;&quot; color=&quot;#33001a&quot;&gt;switch_media_stream&lt;/font&gt;&lt;/div&gt;" style="rounded=0;whiteSpace=wrap;html=1;dashed=1;strokeColor=none;fillColor=none;" vertex="1" parent="1">
          <mxGeometry x="90" y="360" width="150" height="30" as="geometry" />
        </mxCell>
        <mxCell id="H3Kc1O4I8Vcekz-QAihB-18" value="" style="curved=1;endArrow=none;html=1;rounded=0;exitX=1;exitY=0;exitDx=0;exitDy=0;entryX=0;entryY=0.5;entryDx=0;entryDy=0;dashed=1;startArrow=classic;startFill=1;endFill=0;" edge="1" parent="1">
          <mxGeometry width="50" height="50" relative="1" as="geometry">
            <mxPoint x="210" y="450" as="sourcePoint" />
            <mxPoint x="359" y="355" as="targetPoint" />
            <Array as="points">
              <mxPoint x="300" y="420" />
            </Array>
          </mxGeometry>
        </mxCell>
        <mxCell id="H3Kc1O4I8Vcekz-QAihB-19" value="1" style="ellipse;whiteSpace=wrap;html=1;aspect=fixed;strokeColor=default;fillColor=none;" vertex="1" parent="1">
          <mxGeometry x="290" y="394" width="20" height="20" as="geometry" />
        </mxCell>
        <mxCell id="H3Kc1O4I8Vcekz-QAihB-20" value="2" style="ellipse;whiteSpace=wrap;html=1;aspect=fixed;strokeColor=default;fillColor=none;" vertex="1" parent="1">
          <mxGeometry x="540" y="310" width="20" height="20" as="geometry" />
        </mxCell>
        <mxCell id="H3Kc1O4I8Vcekz-QAihB-21" value="&lt;div style=&quot;background-color: rgb(255, 255, 255); font-family: Consolas, Consolas, &amp;quot;Courier New&amp;quot;, monospace; line-height: 24px;&quot;&gt;&lt;font style=&quot;font-size: 15px;&quot; color=&quot;#33001a&quot;&gt;switch_media_stream:push&lt;/font&gt;&lt;/div&gt;" style="rounded=0;whiteSpace=wrap;html=1;dashed=1;strokeColor=none;fillColor=none;" vertex="1" parent="1">
          <mxGeometry x="560" y="320" width="210" height="30" as="geometry" />
        </mxCell>
        <mxCell id="H3Kc1O4I8Vcekz-QAihB-22" value="3" style="ellipse;whiteSpace=wrap;html=1;aspect=fixed;strokeColor=default;fillColor=none;" vertex="1" parent="1">
          <mxGeometry x="510" y="380" width="20" height="20" as="geometry" />
        </mxCell>
        <mxCell id="H3Kc1O4I8Vcekz-QAihB-23" value="&lt;div style=&quot;background-color: rgb(255, 255, 255); font-family: Consolas, Consolas, &amp;quot;Courier New&amp;quot;, monospace; line-height: 24px;&quot;&gt;&lt;font style=&quot;font-size: 15px;&quot; color=&quot;#33001a&quot;&gt;user_status&lt;/font&gt;&lt;/div&gt;" style="rounded=0;whiteSpace=wrap;html=1;dashed=1;strokeColor=none;fillColor=none;" vertex="1" parent="1">
          <mxGeometry x="530" y="384" width="100" height="30" as="geometry" />
        </mxCell>
        <mxCell id="H3Kc1O4I8Vcekz-QAihB-27" value="" style="curved=1;endArrow=classic;html=1;rounded=0;dashed=1;fontColor=#33001A;exitX=0.926;exitY=1.038;exitDx=0;exitDy=0;exitPerimeter=0;entryX=-0.033;entryY=0.621;entryDx=0;entryDy=0;entryPerimeter=0;" edge="1" parent="1" source="H3Kc1O4I8Vcekz-QAihB-8" target="H3Kc1O4I8Vcekz-QAihB-5">
          <mxGeometry width="50" height="50" relative="1" as="geometry">
            <mxPoint x="450" y="490" as="sourcePoint" />
            <mxPoint x="500" y="440" as="targetPoint" />
            <Array as="points">
              <mxPoint x="520" y="440" />
            </Array>
          </mxGeometry>
        </mxCell>
        <mxCell id="H3Kc1O4I8Vcekz-QAihB-28" value="3" style="ellipse;whiteSpace=wrap;html=1;aspect=fixed;strokeColor=default;fillColor=none;" vertex="1" parent="1">
          <mxGeometry x="500" y="424" width="20" height="20" as="geometry" />
        </mxCell>
        <mxCell id="H3Kc1O4I8Vcekz-QAihB-30" value="4" style="ellipse;whiteSpace=wrap;html=1;aspect=fixed;strokeColor=#b85450;fillColor=#f8cecc;" vertex="1" parent="1">
          <mxGeometry x="350" y="500" width="20" height="20" as="geometry" />
        </mxCell>
        <mxCell id="H3Kc1O4I8Vcekz-QAihB-31" value="4" style="ellipse;whiteSpace=wrap;html=1;aspect=fixed;strokeColor=#b85450;fillColor=#f8cecc;" vertex="1" parent="1">
          <mxGeometry x="490" y="470" width="20" height="20" as="geometry" />
        </mxCell>
        <mxCell id="H3Kc1O4I8Vcekz-QAihB-32" value="4" style="ellipse;whiteSpace=wrap;html=1;aspect=fixed;strokeColor=#b85450;fillColor=#f8cecc;" vertex="1" parent="1">
          <mxGeometry x="330" y="414" width="20" height="20" as="geometry" />
        </mxCell>
        <mxCell id="H3Kc1O4I8Vcekz-QAihB-33" value="&lt;div style=&quot;background-color: rgb(255, 255, 255); font-family: Consolas, Consolas, &amp;quot;Courier New&amp;quot;, monospace; line-height: 24px;&quot;&gt;&lt;font style=&quot;font-size: 15px;&quot; color=&quot;#33001a&quot;&gt;user_status:push&lt;/font&gt;&lt;/div&gt;" style="rounded=0;whiteSpace=wrap;html=1;dashed=1;strokeColor=none;fillColor=none;" vertex="1" parent="1">
          <mxGeometry x="308" y="520" width="152" height="30" as="geometry" />
        </mxCell>
        <mxCell id="H3Kc1O4I8Vcekz-QAihB-34" value="媒体" style="rounded=1;whiteSpace=wrap;html=1;strokeColor=#d6b656;fillColor=#fff2cc;" vertex="1" parent="1">
          <mxGeometry x="780" y="196" width="110" height="50" as="geometry" />
        </mxCell>
        <mxCell id="H3Kc1O4I8Vcekz-QAihB-35" value="" style="curved=1;endArrow=classic;html=1;rounded=0;fontColor=#33001A;exitX=0.75;exitY=0;exitDx=0;exitDy=0;entryX=0;entryY=0.25;entryDx=0;entryDy=0;fillColor=#fff2cc;strokeColor=#d6b656;" edge="1" parent="1" source="H3Kc1O4I8Vcekz-QAihB-8" target="H3Kc1O4I8Vcekz-QAihB-34">
          <mxGeometry width="50" height="50" relative="1" as="geometry">
            <mxPoint x="450" y="490" as="sourcePoint" />
            <mxPoint x="500" y="440" as="targetPoint" />
            <Array as="points">
              <mxPoint x="520" y="220" />
            </Array>
          </mxGeometry>
        </mxCell>
        <mxCell id="H3Kc1O4I8Vcekz-QAihB-36" value="" style="curved=1;endArrow=classic;html=1;rounded=0;fontColor=#33001A;exitX=0.857;exitY=0.985;exitDx=0;exitDy=0;exitPerimeter=0;entryX=1.014;entryY=0.593;entryDx=0;entryDy=0;entryPerimeter=0;fillColor=#fff2cc;strokeColor=#d6b656;" edge="1" parent="1" source="H3Kc1O4I8Vcekz-QAihB-34" target="H3Kc1O4I8Vcekz-QAihB-5">
          <mxGeometry width="50" height="50" relative="1" as="geometry">
            <mxPoint x="450" y="490" as="sourcePoint" />
            <mxPoint x="500" y="440" as="targetPoint" />
            <Array as="points">
              <mxPoint x="850" y="380" />
            </Array>
          </mxGeometry>
        </mxCell>
        <mxCell id="H3Kc1O4I8Vcekz-QAihB-37" value="&lt;div style=&quot;background-color: rgb(255, 255, 255); font-family: Consolas, Consolas, &amp;quot;Courier New&amp;quot;, monospace; line-height: 24px;&quot;&gt;&lt;font style=&quot;font-size: 15px;&quot; color=&quot;#33001a&quot;&gt;弱网环境，备用关闭路径&lt;/font&gt;&lt;/div&gt;" style="rounded=0;whiteSpace=wrap;html=1;dashed=1;strokeColor=none;fillColor=none;" vertex="1" parent="1">
          <mxGeometry x="460" y="196" width="230" height="30" as="geometry" />
        </mxCell>
        <mxCell id="H3Kc1O4I8Vcekz-QAihB-39" value="&lt;div style=&quot;background-color: rgb(255, 255, 255); font-family: Consolas, Consolas, &amp;quot;Courier New&amp;quot;, monospace; line-height: 24px;&quot;&gt;&lt;font style=&quot;font-size: 15px;&quot; color=&quot;#33001a&quot;&gt;强制关闭，封禁屏幕共享10min&lt;/font&gt;&lt;/div&gt;" style="rounded=0;whiteSpace=wrap;html=1;dashed=1;strokeColor=none;fillColor=none;" vertex="1" parent="1">
          <mxGeometry x="780" y="390" width="230" height="30" as="geometry" />
        </mxCell>
        <mxCell id="H3Kc1O4I8Vcekz-QAihB-41" value="&lt;div style=&quot;background-color: rgb(255, 255, 255); font-family: Consolas, Consolas, &amp;quot;Courier New&amp;quot;, monospace; line-height: 24px;&quot;&gt;&lt;font style=&quot;font-size: 15px;&quot; color=&quot;#33001a&quot;&gt;user_status:push&lt;/font&gt;&lt;/div&gt;" style="rounded=0;whiteSpace=wrap;html=1;dashed=1;strokeColor=none;fillColor=none;" vertex="1" parent="1">
          <mxGeometry x="262" y="440" width="152" height="30" as="geometry" />
        </mxCell>
        <mxCell id="H3Kc1O4I8Vcekz-QAihB-45" value="&lt;div style=&quot;background-color: rgb(255, 255, 255); font-family: Consolas, Consolas, &amp;quot;Courier New&amp;quot;, monospace; line-height: 24px;&quot;&gt;&lt;font style=&quot;font-size: 15px;&quot; color=&quot;#33001a&quot;&gt;user_status:push&lt;/font&gt;&lt;/div&gt;" style="rounded=0;whiteSpace=wrap;html=1;dashed=1;strokeColor=none;fillColor=none;" vertex="1" parent="1">
          <mxGeometry x="474" y="495" width="152" height="30" as="geometry" />
        </mxCell>
        <mxCell id="H3Kc1O4I8Vcekz-QAihB-47" value="" style="curved=1;endArrow=classic;html=1;rounded=0;fontSize=15;fontColor=#33001A;fillColor=#fff2cc;strokeColor=#d6b656;entryX=0.25;entryY=0;entryDx=0;entryDy=0;" edge="1" parent="1" target="H3Kc1O4I8Vcekz-QAihB-8">
          <mxGeometry width="50" height="50" relative="1" as="geometry">
            <mxPoint x="440" y="320" as="sourcePoint" />
            <mxPoint x="200" y="220" as="targetPoint" />
            <Array as="points">
              <mxPoint x="410" y="230" />
            </Array>
          </mxGeometry>
        </mxCell>
        <mxCell id="H3Kc1O4I8Vcekz-QAihB-48" value="&lt;div style=&quot;background-color: rgb(255, 255, 255); font-family: Consolas, Consolas, &amp;quot;Courier New&amp;quot;, monospace; line-height: 24px;&quot;&gt;&lt;font style=&quot;font-size: 15px;&quot; color=&quot;#33001a&quot;&gt;媒体通知成功：模拟user_status:push&lt;/font&gt;&lt;/div&gt;" style="rounded=0;whiteSpace=wrap;html=1;dashed=1;strokeColor=none;fillColor=none;" vertex="1" parent="1">
          <mxGeometry x="151" y="246" width="309" height="30" as="geometry" />
        </mxCell>
        <mxCell id="H3Kc1O4I8Vcekz-QAihB-50" value="&lt;div style=&quot;background-color: rgb(255, 255, 255); font-family: Consolas, Consolas, &amp;quot;Courier New&amp;quot;, monospace; line-height: 24px;&quot;&gt;&lt;font style=&quot;font-size: 15px;&quot; color=&quot;#33001a&quot;&gt;UDP包&lt;/font&gt;&lt;/div&gt;" style="rounded=0;whiteSpace=wrap;html=1;dashed=1;strokeColor=none;fillColor=none;" vertex="1" parent="1">
          <mxGeometry x="827" y="330" width="93" height="30" as="geometry" />
        </mxCell>
        <mxCell id="H3Kc1O4I8Vcekz-QAihB-51" value="&lt;div style=&quot;background-color: rgb(255, 255, 255); font-family: Consolas, Consolas, &amp;quot;Courier New&amp;quot;, monospace; line-height: 24px;&quot;&gt;&lt;font style=&quot;font-size: 15px;&quot; color=&quot;#33001a&quot;&gt;通知媒体&lt;/font&gt;&lt;/div&gt;" style="rounded=0;whiteSpace=wrap;html=1;dashed=1;strokeColor=none;fillColor=none;" vertex="1" parent="1">
          <mxGeometry x="520" y="240" width="230" height="30" as="geometry" />
        </mxCell>
        <mxCell id="H3Kc1O4I8Vcekz-QAihB-52" value="&lt;div style=&quot;background-color: rgb(255, 255, 255); font-family: Consolas, Consolas, &amp;quot;Courier New&amp;quot;, monospace; line-height: 24px;&quot;&gt;&lt;font style=&quot;font-size: 15px;&quot; color=&quot;#33001a&quot;&gt;sleep 3s&lt;/font&gt;&lt;/div&gt;" style="rounded=0;whiteSpace=wrap;html=1;dashed=1;strokeColor=none;fillColor=none;" vertex="1" parent="1">
          <mxGeometry x="184" y="216" width="230" height="30" as="geometry" />
        </mxCell>
        <mxCell id="H3Kc1O4I8Vcekz-QAihB-53" value="APP" style="rounded=1;whiteSpace=wrap;html=1;fillColor=#ffe6cc;strokeColor=#d79b00;" vertex="1" parent="1">
          <mxGeometry x="120" y="700" width="90" height="40" as="geometry" />
        </mxCell>
        <mxCell id="H3Kc1O4I8Vcekz-QAihB-55" value="center" style="rounded=1;whiteSpace=wrap;html=1;fillColor=#d5e8d4;strokeColor=#82b366;" vertex="1" parent="1">
          <mxGeometry x="308" y="700" width="90" height="40" as="geometry" />
        </mxCell>
        <mxCell id="H3Kc1O4I8Vcekz-QAihB-56" value="APP" style="rounded=1;whiteSpace=wrap;html=1;fillColor=#ffe6cc;strokeColor=#d79b00;" vertex="1" parent="1">
          <mxGeometry x="120" y="790" width="90" height="40" as="geometry" />
        </mxCell>
        <mxCell id="H3Kc1O4I8Vcekz-QAihB-58" value="媒体" style="rounded=1;whiteSpace=wrap;html=1;fillColor=#fff2cc;strokeColor=#d6b656;" vertex="1" parent="1">
          <mxGeometry x="310" y="790" width="90" height="40" as="geometry" />
        </mxCell>
        <mxCell id="H3Kc1O4I8Vcekz-QAihB-59" value="" style="endArrow=classic;html=1;rounded=0;fontSize=15;fontColor=#33001A;entryX=0;entryY=0.5;entryDx=0;entryDy=0;" edge="1" parent="1" target="H3Kc1O4I8Vcekz-QAihB-55">
          <mxGeometry width="50" height="50" relative="1" as="geometry">
            <mxPoint x="212" y="720" as="sourcePoint" />
            <mxPoint x="262" y="670" as="targetPoint" />
          </mxGeometry>
        </mxCell>
        <mxCell id="H3Kc1O4I8Vcekz-QAihB-60" value="" style="endArrow=classic;html=1;rounded=0;fontSize=15;fontColor=#33001A;entryX=0;entryY=0.5;entryDx=0;entryDy=0;" edge="1" parent="1">
          <mxGeometry width="50" height="50" relative="1" as="geometry">
            <mxPoint x="210" y="809.5" as="sourcePoint" />
            <mxPoint x="313" y="809.5" as="targetPoint" />
          </mxGeometry>
        </mxCell>
        <mxCell id="H3Kc1O4I8Vcekz-QAihB-61" value="&lt;div style=&quot;background-color: rgb(255, 255, 255); font-family: Consolas, Consolas, &amp;quot;Courier New&amp;quot;, monospace; line-height: 24px;&quot;&gt;&lt;font style=&quot;font-size: 15px;&quot; color=&quot;#33001a&quot;&gt;tcp/QUIC&lt;/font&gt;&lt;/div&gt;" style="rounded=0;whiteSpace=wrap;html=1;dashed=1;strokeColor=none;fillColor=none;" vertex="1" parent="1">
          <mxGeometry x="194" y="670" width="130" height="30" as="geometry" />
        </mxCell>
        <mxCell id="H3Kc1O4I8Vcekz-QAihB-62" value="&lt;div style=&quot;background-color: rgb(255, 255, 255); font-family: Consolas, Consolas, &amp;quot;Courier New&amp;quot;, monospace; line-height: 24px;&quot;&gt;&lt;font style=&quot;font-size: 15px;&quot; color=&quot;#33001a&quot;&gt;UDP&lt;/font&gt;&lt;/div&gt;" style="rounded=0;whiteSpace=wrap;html=1;dashed=1;strokeColor=none;fillColor=none;" vertex="1" parent="1">
          <mxGeometry x="200" y="820" width="130" height="30" as="geometry" />
        </mxCell>
      </root>
    </mxGraphModel>
  </diagram>
</mxfile>
